<svg xmlns="http://www.w3.org/2000/svg" viewBox="-40 2.0 544.2842712474619 248"><g><path d="M 12.00 52.00 L 12.00 150.00 M 12.00 150.00 A 40.0 40.0 0 0 0 88.54 166.27 M 2.00 110.00 L 98.00 110.00 M 214.00 150.00 A 40.0 40.0 0 1 0 196.94 182.77 M 134.00 150.00 L 214.00 150.00 M 190.00 38.00 L 190.00 78.00 M 244.00 200.00 L 244.00 150.00 M 244.00 150.00 A 40.0 40.0 0 1 1 312.28 178.28 M 392.28 110.00 A 40.0 40.0 0 0 0 392.28 190.00 M 392.28 190.00 A 40.0 40.0 0 0 0 392.28 110.00 M 442.28 100.00 L 442.28 200.00" fill="none" stroke="#0A0908" stroke-width="20" stroke-linecap="butt"/></g></svg>