<svg xmlns="http://www.w3.org/2000/svg" viewBox="546.50 709.82 2252.00 892.18">
<g transform="translate(0.000000,2480.000000) scale(0.100000,-0.100000)"
fill="#f7f7f5" stroke="none">
<path d="M5484 17686 c-18 -14 -19 -31 -19 -516 0 -485 1 -502 19 -516 17 -12
203 -14 1246 -14 l1227 0 21 -23 22 -23 0 -3831 c0 -3470 1 -3833 16 -3847 14
-14 80 -16 579 -16 l564 0 15 22 c14 20 16 402 16 3854 0 3699 1 3831 18 3847
17 16 118 17 1250 17 1224 0 1232 0 1252 20 20 20 20 30 18 516 -3 477 -4 496
-22 510 -30 21 -6192 21 -6222 0z"/>
<path d="M14165 17686 c-17 -7 -35 -19 -41 -27 -24 -30 -574 -1321 -574 -1347
0 -16 5 -33 12 -40 9 -9 113 -12 405 -12 427 0 421 -1 475 57 60 64 932 1299
936 1327 9 57 22 56 -607 56 -452 -1 -582 -4 -606 -14z"/>
<path d="M20440 15339 c-415 -53 -844 -286 -1260 -685 -53 -50 -106 -96 -118
-103 -27 -14 -58 -6 -72 18 -5 10 -39 148 -75 307 -39 171 -73 299 -84 314
l-18 25 -496 3 c-440 2 -497 0 -511 -14 -15 -14 -16 -305 -16 -3144 0 -2831 1
-3130 16 -3144 14 -14 79 -16 573 -16 465 0 560 2 577 14 19 14 19 48 24 1893
l5 1878 22 120 c56 304 154 551 312 786 210 313 462 511 790 619 203 67 252
73 748 79 343 5 445 9 455 19 10 10 13 117 13 513 0 484 -1 501 -19 515 -16
12 -87 14 -410 13 -215 -1 -420 -5 -456 -10z"/>
<path d="M13750 15334 c-593 -43 -1078 -196 -1490 -470 -404 -269 -756 -690
-966 -1157 -262 -580 -370 -1316 -303 -2067 43 -485 156 -902 351 -1292 427
-854 1192 -1404 2133 -1532 397 -54 879 -45 1250 24 431 81 793 225 1130 451
486 326 820 781 979 1336 31 108 31 107 10 127 -14 14 -82 16 -602 16 -511 0
-590 -2 -609 -15 -12 -9 -47 -57 -76 -108 -134 -226 -287 -391 -489 -524 -269
-177 -574 -265 -973 -280 -434 -16 -802 79 -1115 288 -121 80 -340 298 -433
429 -189 268 -296 583 -313 920 -5 94 -3 119 9 135 15 20 30 20 2378 25 l2363
5 22 33 c38 56 49 154 48 427 -2 793 -186 1468 -547 2012 -118 177 -200 277
-346 424 -208 208 -413 355 -672 484 -312 154 -617 241 -1022 291 -117 15
-596 26 -717 18z m470 -1065 c475 -43 849 -224 1112 -538 258 -309 387 -609
420 -978 10 -119 10 -134 -6 -157 l-16 -26 -1728 0 c-1591 0 -1729 1 -1751 17
-23 16 -24 19 -17 115 12 186 56 346 146 533 135 280 362 564 581 728 209 155
490 265 759 296 52 6 109 13 125 15 68 7 267 5 375 -5z"/>
<path d="M24120 15333 c-694 -52 -1284 -254 -1736 -594 -485 -364 -741 -877
-756 -1512 -3 -108 -1 -120 16 -133 17 -12 112 -14 583 -14 656 0 603 -9 603
108 0 37 7 108 15 157 35 219 120 387 275 549 202 210 461 324 860 378 139 19
605 16 800 -6 396 -43 672 -137 829 -282 124 -115 278 -387 326 -579 23 -89
25 -117 25 -309 0 -116 -5 -228 -10 -248 -15 -52 -53 -94 -113 -125 -101 -51
-135 -52 -1042 -53 -462 0 -914 -5 -1005 -10 -710 -44 -1262 -210 -1665 -500
-480 -346 -725 -825 -725 -1419 0 -608 237 -1101 705 -1466 424 -332 1029
-495 1835 -495 664 0 1166 108 1664 357 212 106 342 193 477 319 36 34 76 65
89 69 30 9 48 -11 110 -127 33 -62 68 -106 135 -173 162 -162 347 -247 655
-301 138 -24 865 -33 895 -11 20 15 20 27 20 517 0 469 -1 502 -18 515 -13 9
-80 14 -240 18 -180 4 -234 8 -288 24 -158 46 -219 119 -267 313 -14 57 -16
240 -22 1540 -6 1439 -7 1478 -27 1606 -84 515 -269 890 -590 1194 -407 386
-973 619 -1662 685 -139 14 -612 19 -751 8z m1824 -3606 c17 -13 18 -28 13
-218 -4 -154 -10 -228 -26 -302 -70 -321 -221 -599 -457 -842 -326 -335 -792
-501 -1464 -522 -467 -14 -818 60 -1045 222 -117 84 -247 239 -301 361 -87
198 -97 432 -25 636 70 196 233 377 426 472 196 97 514 167 890 195 61 4 529
9 1041 10 760 1 934 -1 948 -12z"/>
</g>
</svg>